name Walk10.mot
datacolumns 19
datarows 12
range 2.55000000 2.60500000
endheader

                time	   L_ground_force_vx	   L_ground_force_vy	   L_ground_force_vz	   L_ground_force_px	   L_ground_force_py	   L_ground_force_pz	   R_ground_force_vx	   R_ground_force_vy	   R_ground_force_vz	   R_ground_force_px	   R_ground_force_py	   R_ground_force_pz	   L_ground_torque_x	   L_ground_torque_y	   L_ground_torque_z	   R_ground_torque_x	   R_ground_torque_y	   R_ground_torque_z	
          2.55000000	          0.00000000	          0.00000000	         -0.00000000	         -0.00000000	          0.00000000	         -0.00000000	         -0.77771478	          0.43755387	          0.83594886	          0.08419721	          0.00000000	          0.01626662	          0.00000000	          0.00000000	          0.00000000	          0.00000000	          0.02429052	          0.00000000	
          2.55500000	          0.00000000	          0.00000000	         -0.00000000	         -0.00000000	          0.00000000	         -0.00000000	         -1.81607054	         -3.61807724	          0.56560524	          0.05654573	          0.00000000	          0.01055536	          0.00000000	          0.00000000	          0.00000000	          0.00000000	          0.02149951	          0.00000000	
          2.56000000	          0.00000000	          0.00000000	         -0.00000000	         -0.00000000	          0.00000000	         -0.00000000	         -2.33831876	         -5.93272874	          0.34750658	          0.03434129	          0.00000000	          0.00605804	          0.00000000	          0.00000000	          0.00000000	          0.00000000	          0.01800935	          0.00000000	
          2.56500000	          0.00000000	          0.00000000	         -0.00000000	         -0.00000000	          0.00000000	         -0.00000000	         -2.48829368	         -6.94786280	          0.18016057	          0.01738603	          0.00000000	          0.00269488	          0.00000000	          0.00000000	          0.00000000	          0.00000000	          0.01434685	          0.00000000	
          2.57000000	          0.00000000	          0.00000000	         -0.00000000	         -0.00000000	          0.00000000	         -0.00000000	         -2.38767575	         -7.04935667	          0.05859629	          0.00513792	          0.00000000	          0.00032501	          0.00000000	          0.00000000	          0.00000000	          0.00000000	          0.01086350	          0.00000000	
          2.57500000	          0.00000000	          0.00000000	         -0.00000000	         -0.00000000	          0.00000000	         -0.00000000	         -2.13431514	         -6.55692385	         -0.02399479	         -0.00312290	          0.00000000	         -0.00122044	          0.00000000	          0.00000000	          0.00000000	          0.00000000	          0.00777052	          0.00000000	
          2.58000000	          0.00000000	          0.00000000	         -0.00000000	         -0.00000000	          0.00000000	         -0.00000000	         -1.80304136	         -5.72256282	         -0.07506115	         -0.00817342	          0.00000000	         -0.00211499	          0.00000000	          0.00000000	          0.00000000	          0.00000000	          0.00517250	          0.00000000	
          2.58500000	         -0.00000000	          0.00000000	         -0.00000000	         -0.00000000	          0.00000000	         -0.00000000	         -1.44800314	         -4.73491773	         -0.10187259	         -0.01076580	          0.00000000	         -0.00252137	          0.00000000	          0.00000000	          0.00000000	          0.00000000	          0.00309736	          0.00000000	
          2.59000000	         -0.00000000	         -0.00000000	         -0.00000000	         -0.00000000	          0.00000000	         -0.00000000	         -1.10580446	         -3.72708533	         -0.11100935	         -0.01157680	          0.00000000	         -0.00258257	          0.00000000	          0.00000000	          0.00000000	          0.00000000	          0.00152164	          0.00000000	
          2.59500000	         -0.00000000	         -0.00000000	         -0.00000000	         -0.00000000	          0.00000000	         -0.00000000	         -0.79890332	         -2.78601455	         -0.10808909	         -0.01118129	          0.00000000	         -0.00241756	          0.00000000	          0.00000000	          0.00000000	          0.00000000	          0.00039083	          0.00000000	
          2.60000000	         -0.00000000	         -0.00000000	         -0.00000000	         -0.00000000	          0.00000000	         -0.00000000	         -0.53890997	         -1.96218402	         -0.09766784	         -0.01004336	          0.00000000	         -0.00212055	          0.00000000	          0.00000000	          0.00000000	          0.00000000	         -0.00036525	          0.00000000	
          2.60500000	         -0.00000000	         -0.00000000	         -0.00000000	         -0.00000000	          0.00000000	         -0.00000000	         -0.32956001	         -1.27869243	         -0.08326054	         -0.00851931	          0.00000000	         -0.00176237	          0.00000000	          0.00000000	          0.00000000	          0.00000000	         -0.00082123	          0.00000000	
